# xmcd
#
# Track frame offsets:
#	150
#	17709
#	31621
#	45383
#	61247
#	75084
#	87946
#	103733
#	120345
#	137332
#	155894
#	173559
#	190171
#	206258
#
# Disc length: 2988 seconds
#
# Revision: 1
# Processed by: cddbd v1.5.2PL0 Copyright (c) Steve Scherf et al.
# Submitted via: EasyCDDAExtractor 7.0.3.1
#
DISCID=9a0baa0e
DTITLE=Various Artist - Hitz Country 2009 Vol 03
DYEAR=2009
DGENRE=Country 
TTITLE0=Taylor Swift - You Belong To Me
TTITLE1=Alan Jackson - Sissy's Song
TTITLE2=Sugarland - It Happens
TTITLE3=Jack Ingram - Barefoot And Crazy
TTITLE4=Dierks Bentley - Sideways
TTITLE5=Eric Church - Love Your Love The Most
TTITLE6=Zac Brown Band - Whatever It Is
TTITLE7=Craig Morgan - God Must Really Love ME
TTITLE8=Pat Green - Country Star
TTITLE9=David Nail - Red Light 
TTITLE10=Billy Currington - People Are Crazy
TTITLE11=Jonathan Singleton and The Grove - Livin In Paradise
TTITLE12=Chris Young - Gettin You Home (Little Black Dress Song)
TTITLE13=Zac Brown Band - Chicken Fried
EXTD=
EXTT0=
EXTT1=
EXTT2=
EXTT3=
EXTT4=
EXTT5=
EXTT6=
EXTT7=
EXTT8=
EXTT9=
EXTT10=
EXTT11=
EXTT12=
EXTT13=
PLAYORDER=
